<svg viewBox="0 0 220 34" fill="none" xmlns="http://www.w3.org/2000/svg">
<path d="M11.4599 0C13.7484 0 15.7146 0.273851 17.3575 0.821552C18.9992 1.36925 20.3531 2.12384 21.4156 3.08411C22.4781 4.04438 23.2622 5.17805 23.768 6.48392C24.2726 7.7898 24.526 9.19971 24.526 10.7161C24.526 12.352 24.2655 13.8528 23.7455 15.2184C23.2255 16.5841 22.4295 17.7549 21.3599 18.7295C20.2903 19.7053 18.9329 20.467 17.2912 21.0148C15.6483 21.5625 13.7045 21.8363 11.4611 21.8363H7.53691V32.7987H0V0H11.4599ZM11.4599 16.095C13.4226 16.095 14.8345 15.6226 15.6969 14.6767C16.5592 13.7308 16.9903 12.4106 16.9903 10.7149C16.9903 9.96506 16.879 9.28222 16.6563 8.66636C16.4336 8.05169 16.0948 7.52192 15.6412 7.07946C15.1875 6.63699 14.6154 6.29498 13.9249 6.05581C13.2331 5.81664 12.4123 5.69585 11.4611 5.69585H7.53691V16.0962H11.4611L11.4599 16.095Z" fill="#0873B0"/>
<path d="M33.7345 13.0563C34.4475 11.7959 35.2696 10.8057 36.1982 10.0846C37.1269 9.36471 38.1941 9.00476 39.3975 9.00476C40.4375 9.00476 41.2844 9.2523 41.9394 9.74739L41.4941 14.88C41.4194 15.21 41.2963 15.4349 41.1257 15.5557C40.9551 15.6764 40.7206 15.7362 40.4233 15.7362C40.3037 15.7362 40.1485 15.729 39.9554 15.7135C39.7623 15.6992 39.561 15.68 39.3537 15.6573C39.1452 15.6346 38.9332 15.6119 38.7188 15.5891C38.5032 15.5664 38.3066 15.5557 38.1277 15.5557C37.1162 15.5557 36.3107 15.8259 35.709 16.3664C35.1073 16.907 34.598 17.6568 34.1822 18.617V32.7987H27.2695V9.4544H31.3726C31.7137 9.4544 32.0004 9.4843 32.2314 9.54409C32.4611 9.60388 32.6554 9.69836 32.8106 9.82512C32.9669 9.95307 33.0854 10.1217 33.1671 10.331C33.2488 10.5414 33.3187 10.7962 33.3791 11.0963L33.7357 13.0551L33.7345 13.0563Z" fill="#0873B0"/>
<path d="M49.565 22.3757C49.7877 24.3273 50.3752 25.7408 51.3264 26.6185C52.2775 27.4963 53.5035 27.9352 55.0054 27.9352C55.8085 27.9352 56.499 27.8383 57.0794 27.6422C57.6586 27.4473 58.1751 27.2296 58.6287 26.9893C59.0824 26.7501 59.4982 26.5312 59.8772 26.3363C60.2562 26.1414 60.6542 26.0433 61.07 26.0433C61.6196 26.0433 62.0365 26.2454 62.3184 26.6508L64.3249 29.149C63.6119 29.9741 62.842 30.6462 62.0176 31.164C61.192 31.6818 60.3451 32.0872 59.4756 32.379C58.6062 32.672 57.7368 32.8741 56.8674 32.9865C55.998 33.0989 55.1688 33.1551 54.3812 33.1551C52.7608 33.1551 51.2411 32.8884 49.8209 32.3563C48.4019 31.8241 47.1605 31.0324 46.0968 29.9813C45.0344 28.9313 44.1945 27.6255 43.5774 26.0637C42.9603 24.5031 42.6523 22.6878 42.6523 20.6166C42.6523 19.056 42.9165 17.5779 43.4436 16.1823C43.9707 14.7868 44.7288 13.5634 45.7178 12.5134C46.7069 11.4635 47.9032 10.63 49.308 10.0153C50.7128 9.39944 52.2988 9.0921 54.0685 9.0921C55.5988 9.0921 57.0001 9.33247 58.271 9.81201C59.542 10.2927 60.6341 10.9899 61.5485 11.9059C62.4629 12.822 63.176 13.9437 63.6889 15.2711C64.2018 16.5997 64.4576 18.1041 64.4576 19.7842C64.4576 20.3092 64.4351 20.7373 64.3901 21.0674C64.3451 21.3974 64.2634 21.6605 64.1449 21.8555C64.0253 22.0504 63.8665 22.1855 63.6652 22.2609C63.4638 22.3362 63.208 22.3733 62.8953 22.3733H49.5615L49.565 22.3757ZM58.2604 18.3241C58.2604 17.7692 58.1893 17.2287 58.0483 16.7037C57.9074 16.1787 57.6764 15.71 57.3566 15.2962C57.0368 14.8836 56.6175 14.55 56.0963 14.2941C55.5763 14.0394 54.9438 13.9114 54.2011 13.9114C52.8934 13.9114 51.8677 14.2905 51.1238 15.0487C50.38 15.8068 49.8896 16.8986 49.6515 18.3241H58.258H58.2604Z" fill="#0873B0"/>
<path d="M89.0297 9.45441L80.0667 32.7975H73.7794L64.8164 9.45441H70.5683C71.0587 9.45441 71.4709 9.57041 71.8061 9.8036C72.1401 10.0368 72.3675 10.325 72.486 10.6706L75.6971 21.1379C75.979 21.9929 76.2278 22.8265 76.4445 23.636C76.6601 24.4468 76.8496 25.2564 77.0131 26.0672C77.34 24.4468 77.7937 22.8037 78.3729 21.1379L81.7179 10.6706C81.8363 10.325 82.0602 10.0368 82.3871 9.8036C82.714 9.5716 83.1002 9.45441 83.5467 9.45441H89.0321H89.0297Z" fill="#0873B0"/>
<path d="M96.1881 22.3757C96.4108 24.3273 96.9983 25.7408 97.9494 26.6185C98.9005 27.4963 100.126 27.9352 101.628 27.9352C102.432 27.9352 103.122 27.8383 103.702 27.6422C104.282 27.4473 104.798 27.2296 105.252 26.9893C105.705 26.7501 106.121 26.5312 106.5 26.3363C106.879 26.1414 107.277 26.0433 107.693 26.0433C108.243 26.0433 108.66 26.2454 108.941 26.6508L110.948 29.149C110.235 29.9741 109.465 30.6462 108.641 31.164C107.815 31.6818 106.968 32.0872 106.099 32.379C105.229 32.672 104.36 32.8741 103.49 32.9865C102.621 33.0989 101.792 33.1551 101.004 33.1551C99.3838 33.1551 97.8641 32.8884 96.4439 32.3563C95.0249 31.8241 93.7836 31.0324 92.7199 29.9813C91.6574 28.9313 90.8176 27.6255 90.2005 26.0637C89.5834 24.5031 89.2754 22.6878 89.2754 20.6166C89.2754 19.056 89.5395 17.5779 90.0666 16.1823C90.5937 14.7868 91.3518 13.5634 92.3409 12.5134C93.3299 11.4635 94.5262 10.63 95.931 10.0153C97.3358 9.39944 98.9219 9.0921 100.692 9.0921C102.222 9.0921 103.623 9.33247 104.894 9.81201C106.165 10.2927 107.257 10.9899 108.172 11.9059C109.086 12.822 109.799 13.9437 110.312 15.2711C110.825 16.5997 111.081 18.1041 111.081 19.7842C111.081 20.3092 111.058 20.7373 111.013 21.0674C110.968 21.3974 110.886 21.6605 110.768 21.8555C110.648 22.0504 110.49 22.1855 110.288 22.2609C110.087 22.3362 109.831 22.3733 109.518 22.3733H96.1845L96.1881 22.3757ZM104.883 18.3241C104.883 17.7692 104.812 17.2287 104.671 16.7037C104.53 16.1787 104.299 15.71 103.98 15.2962C103.66 14.8836 103.241 14.55 102.719 14.2941C102.199 14.0394 101.567 13.9114 100.824 13.9114C99.5165 13.9114 98.4907 14.2905 97.7469 15.0487C97.003 15.8068 96.5126 16.8986 96.2745 18.3241H104.881H104.883Z" fill="#0873B0"/>
<path d="M120.915 11.9753C121.36 11.5556 121.821 11.1645 122.297 10.8046C122.772 10.4446 123.281 10.1409 123.824 9.89331C124.366 9.64577 124.954 9.45085 125.585 9.30854C126.217 9.16623 126.905 9.09448 127.647 9.09448C128.911 9.09448 130.029 9.31571 131.003 9.75818C131.977 10.2006 132.798 10.8165 133.467 11.6046C134.136 12.3926 134.641 13.3302 134.983 14.4184C135.325 15.5067 135.496 16.6882 135.496 17.9641V32.7987H128.583V17.9641C128.583 16.8233 128.323 15.9348 127.803 15.2962C127.283 14.6588 126.516 14.3395 125.506 14.3395C124.748 14.3395 124.037 14.5009 123.376 14.8238C122.714 15.1467 122.072 15.5856 121.448 16.1405V32.7987H114.535V9.45443H118.816C119.678 9.45443 120.243 9.84548 120.511 10.6252L120.912 11.9765L120.915 11.9753Z" fill="#0873B0"/>
<path d="M147.915 33.1586C146.815 33.1586 145.845 32.9972 145.006 32.6743C144.167 32.3514 143.461 31.8946 142.888 31.3015C142.316 30.7083 141.882 29.992 141.584 29.1513C141.287 28.3107 141.139 27.3731 141.139 26.3375V14.2713H139.176C138.82 14.2713 138.515 14.1553 138.262 13.9221C138.008 13.6901 137.883 13.3481 137.883 12.8985V10.1743L141.562 9.45442L142.922 3.75976C143.1 3.03986 143.605 2.67871 144.438 2.67871H148.049V9.49986H153.78V14.2725H148.049V25.8651C148.049 26.4057 148.18 26.8517 148.439 27.2045C148.698 27.5573 149.074 27.7331 149.565 27.7331C149.818 27.7331 150.03 27.7067 150.2 27.6541C150.371 27.6015 150.52 27.5417 150.646 27.4736C150.772 27.4054 150.891 27.3456 151.002 27.293C151.114 27.2404 151.244 27.2141 151.392 27.2141C151.6 27.2141 151.767 27.2631 151.893 27.3599C152.02 27.458 152.15 27.6111 152.284 27.8215L154.379 31.1305C153.487 31.8061 152.484 32.312 151.369 32.6504C150.255 32.9876 149.102 33.1563 147.913 33.1563L147.915 33.1586Z" fill="#0873B0"/>
<path d="M177.503 9.45441V32.7975H173.222C172.359 32.7975 171.794 32.4076 171.527 31.6267L171.125 30.2766C170.679 30.7119 170.218 31.1054 169.743 31.4581C169.267 31.8109 168.759 32.1111 168.215 32.3586C167.672 32.6061 167.085 32.8011 166.454 32.9434C165.822 33.0857 165.134 33.1574 164.391 33.1574C163.128 33.1574 162.009 32.9362 161.036 32.4937C160.062 32.0513 159.241 31.4318 158.572 30.6366C157.903 29.8413 157.397 28.9038 157.056 27.8227C156.714 26.7429 156.543 25.5566 156.543 24.2663V9.45441H163.454V24.2663C163.454 25.4227 163.715 26.3148 164.235 26.945C164.755 27.5752 165.52 27.8909 166.532 27.8909C167.29 27.8909 167.999 27.7295 168.661 27.4066C169.322 27.0837 169.966 26.6448 170.59 26.0899V9.45441H177.501H177.503Z" fill="#0873B0"/>
<path d="M188.65 13.0563C189.364 11.7959 190.186 10.8057 191.114 10.0846C192.043 9.36471 193.11 9.00476 194.314 9.00476C195.354 9.00476 196.2 9.2523 196.855 9.74739L196.41 14.88C196.335 15.21 196.212 15.4349 196.042 15.5557C195.871 15.6764 195.637 15.7362 195.339 15.7362C195.22 15.7362 195.064 15.729 194.871 15.7135C194.678 15.6992 194.477 15.68 194.27 15.6573C194.061 15.6346 193.849 15.6119 193.635 15.5891C193.419 15.5664 193.223 15.5557 193.044 15.5557C192.032 15.5557 191.227 15.8259 190.625 16.3664C190.023 16.907 189.514 17.6568 189.098 18.617V32.7987H182.186V9.4544H186.289C186.63 9.4544 186.916 9.4843 187.147 9.54409C187.377 9.60388 187.571 9.69836 187.727 9.82512C187.883 9.95307 188.001 10.1217 188.083 10.331C188.165 10.5414 188.235 10.7962 188.295 11.0963L188.652 13.0551L188.65 13.0563Z" fill="#0873B0"/>
<path d="M204.481 22.3757C204.704 24.3273 205.291 25.7408 206.242 26.6185C207.194 27.4963 208.419 27.9352 209.921 27.9352C210.724 27.9352 211.415 27.8383 211.995 27.6422C212.575 27.4473 213.091 27.2296 213.545 26.9893C213.998 26.7501 214.414 26.5312 214.793 26.3363C215.172 26.1414 215.57 26.0433 215.986 26.0433C216.536 26.0433 216.953 26.2454 217.234 26.6508L219.241 29.149C218.528 29.9741 217.758 30.6462 216.934 31.164C216.108 31.6818 215.261 32.0872 214.392 32.379C213.522 32.672 212.653 32.8741 211.783 32.9865C210.914 33.0989 210.085 33.1551 209.297 33.1551C207.677 33.1551 206.157 32.8884 204.737 32.3563C203.318 31.8241 202.077 31.0324 201.013 29.9813C199.95 28.9313 199.111 27.6255 198.493 26.0637C197.876 24.5031 197.568 22.6878 197.568 20.6166C197.568 19.056 197.833 17.5779 198.36 16.1823C198.887 14.7868 199.645 13.5634 200.634 12.5134C201.623 11.4635 202.819 10.63 204.224 10.0153C205.629 9.39944 207.215 9.0921 208.984 9.0921C210.515 9.0921 211.916 9.33247 213.187 9.81201C214.458 10.2927 215.55 10.9899 216.465 11.9059C217.379 12.822 218.092 13.9437 218.605 15.2711C219.118 16.5997 219.374 18.1041 219.374 19.7842C219.374 20.3092 219.351 20.7373 219.306 21.0674C219.261 21.3974 219.179 21.6605 219.061 21.8555C218.941 22.0504 218.783 22.1855 218.581 22.2609C218.38 22.3362 218.124 22.3733 217.811 22.3733H204.477L204.481 22.3757ZM213.176 18.3241C213.176 17.7692 213.105 17.2287 212.964 16.7037C212.823 16.1787 212.592 15.71 212.273 15.2962C211.953 14.8836 211.533 14.55 211.012 14.2941C210.492 14.0394 209.86 13.9114 209.117 13.9114C207.809 13.9114 206.784 14.2905 206.04 15.0487C205.296 15.8068 204.806 16.8986 204.568 18.3241H213.174H213.176Z" fill="#0873B0"/>
<!-- <path d="M89.6428 44.0128C90.0787 42.5909 90.5738 41.1822 90.9256 39.74C91.1175 38.9519 91.461 38.653 92.2321 38.7845C92.4725 38.8252 92.726 38.7905 93.066 38.7905C92.6277 40.094 92.2167 41.3066 91.8104 42.5203C91.3733 43.8274 90.9114 45.1261 90.5169 46.4463C90.3523 46.9976 89.9816 46.9103 89.6096 46.9031C89.2247 46.8948 88.8125 47.0359 88.6301 46.4451C88.2179 45.107 87.7346 43.7903 87.2785 42.4653C87.2075 42.2585 87.1281 42.0552 86.9872 41.6761C86.5169 43.0453 86.1024 44.2495 85.6878 45.4538C85.6203 45.6499 85.5516 45.8448 85.4852 46.0397C85.2033 46.8733 84.6881 47.1471 83.8471 46.89C83.7381 46.8565 83.6078 46.7429 83.5723 46.6365C82.6934 44.0522 81.8275 41.4644 80.9297 38.7941C81.5101 38.7941 82.0159 38.745 82.5039 38.8192C82.6875 38.8467 82.9054 39.1373 82.9741 39.3525C83.468 40.9059 83.9264 42.4701 84.4488 44.2041C84.6289 43.7078 84.7639 43.3658 84.8776 43.0166C85.278 41.7945 85.7067 40.5795 86.0502 39.3406C86.209 38.7678 86.5347 38.7259 87.0097 38.7355C87.4633 38.745 87.8033 38.7379 87.9738 39.3214C88.4382 40.9071 88.9878 42.4665 89.5042 44.0355C89.5504 44.0283 89.5954 44.0211 89.6416 44.014L89.6428 44.0128Z" fill="#82BC48"/> -->
<!-- <path d="M137.022 43.819C136.794 43.3251 136.271 42.9688 135.877 42.5442C136.604 42.0133 136.917 41.2467 136.648 40.2972C136.399 39.4206 135.729 38.9184 134.894 38.8682C133.418 38.7809 131.936 38.8442 130.42 38.8442V46.7225C132.114 46.7225 133.764 46.8469 135.388 46.6879C136.847 46.5432 137.616 45.095 137.022 43.8202V43.819ZM132.139 40.3666C132.847 40.3666 133.548 40.3283 134.243 40.3797C134.69 40.4132 135.006 40.7026 134.994 41.2061C134.981 41.7167 134.632 41.9642 134.195 41.9953C133.54 42.0456 132.875 42.0085 132.14 42.0085V40.3678L132.139 40.3666ZM134.694 45.2265C133.862 45.2744 133.026 45.2409 132.149 45.2409V43.5607C132.989 43.5607 133.827 43.5224 134.657 43.5774C135.083 43.6073 135.42 43.8752 135.426 44.3942C135.431 44.9024 135.147 45.2014 134.694 45.2253V45.2265Z" fill="#82BC48"/> -->
<!-- <path d="M156.928 43.8656C156.706 43.3598 156.19 42.9855 155.787 42.5275C156.485 42.0157 156.79 41.2742 156.552 40.3427C156.333 39.4828 155.701 38.9471 154.901 38.8933C153.385 38.7916 151.859 38.8634 150.297 38.8634V46.7202C151.992 46.7202 153.66 46.8421 155.301 46.6831C156.725 46.5468 157.482 45.1345 156.926 43.8645L156.928 43.8656ZM152.033 40.3582C152.712 40.3582 153.39 40.3319 154.064 40.3678C154.51 40.3917 154.856 40.6321 154.887 41.1331C154.918 41.676 154.565 41.9571 154.094 41.9941C153.437 42.048 152.775 42.0085 152.033 42.0085V40.3582ZM154.367 45.2851C153.622 45.3389 152.87 45.2983 152.062 45.2983V43.5392C152.845 43.5392 153.574 43.5212 154.303 43.5464C154.81 43.5643 155.266 43.7269 155.313 44.35C155.366 45.0268 154.894 45.2481 154.367 45.2851Z" fill="#82BC48"/> -->
<!-- <path d="M206.374 38.6589C203.944 38.6517 202.102 40.4407 202.096 42.8169C202.092 45.1763 203.897 46.982 206.281 46.9988C208.7 47.0155 210.583 45.2122 210.599 42.8611C210.617 40.4646 208.809 38.6661 206.374 38.6589ZM206.35 45.3485C204.975 45.3461 203.925 44.2567 203.916 42.8205C203.907 41.4046 204.989 40.2685 206.339 40.2733C207.694 40.2793 208.761 41.395 208.769 42.8205C208.78 44.2579 207.736 45.3509 206.352 45.3485H206.35Z" fill="#82BC48"/> -->
<!-- <path d="M217.572 43.5858V38.8514H219.244V46.7847C218.321 47.0311 217.671 46.8326 217.104 45.9787C216.167 44.5688 215.082 43.2605 213.926 41.7334V46.8254H212.244V38.9005C213.43 38.5883 213.744 38.6924 214.446 39.6204C215.43 40.9203 216.415 42.2189 217.399 43.5176C217.411 43.5332 217.44 43.5356 217.572 43.5858Z" fill="#82BC48"/> -->
<!-- <path d="M75.699 38.6589C73.2613 38.6661 71.4632 40.4455 71.4668 42.848C71.4704 45.2361 73.3016 47.012 75.7393 46.9988C78.0893 46.9845 79.9572 45.1452 79.9714 42.8253C79.9856 40.4659 78.1284 38.6506 75.699 38.6577V38.6589ZM75.6753 45.3485C74.3155 45.3378 73.2649 44.2173 73.2755 42.7894C73.2862 41.3592 74.3724 40.2446 75.7227 40.2745C77.105 40.3044 78.1059 41.3903 78.0988 42.8504C78.0917 44.3285 77.0919 45.3605 75.6753 45.3485Z" fill="#82BC48"/> -->
<!-- <path d="M122.148 38.9124C120.816 38.7151 119.43 38.8753 118.033 38.8753V46.8553C119.227 46.8553 120.347 46.8936 121.463 46.8481C123.607 46.7596 125.23 45.1679 125.384 43.0632C125.529 41.0602 124.206 39.221 122.148 38.9124ZM123.124 44.2459C122.313 45.5004 121.043 45.2313 119.811 45.2325V40.3833C121.12 40.3522 122.416 40.1824 123.177 41.4979C123.701 42.3983 123.699 43.3586 123.124 44.2459Z" fill="#82BC48"/> -->
<!-- <path d="M180.076 38.9399C178.73 38.7223 177.32 38.8969 175.908 38.8969V46.8493C177.12 46.8493 178.285 46.9127 179.442 46.8362C181.59 46.6962 183.083 45.1476 183.234 43.0046C183.373 41.0566 182.109 39.2676 180.076 38.9387V38.9399ZM180.986 44.2591C180.146 45.4789 178.909 45.2493 177.673 45.2206V40.3929C178.919 40.3498 180.153 40.1788 180.979 41.395C181.546 42.2309 181.546 43.4459 180.986 44.2591Z" fill="#82BC48"/> -->
<!-- <path d="M107.043 44.002C107.234 43.8896 107.373 43.8094 107.507 43.7245C108.516 43.0907 108.902 42.1089 108.665 40.7863C108.493 39.8248 107.662 38.9459 106.58 38.8741C105.108 38.7761 103.626 38.8502 102.123 38.8502V46.8062H103.861V44.3296C104.756 44.1168 105.389 44.2651 105.781 45.1189C106.009 45.614 106.368 46.0505 106.685 46.5013C106.783 46.64 106.932 46.8338 107.065 46.8409C107.659 46.878 108.259 46.8577 108.958 46.8577C108.267 45.828 107.662 44.924 107.043 44.002ZM106.932 41.6497C106.882 42.3278 106.446 42.6363 105.851 42.6865C105.219 42.738 104.578 42.6973 103.861 42.6973V40.4228C104.596 40.4228 105.305 40.3582 105.993 40.4407C106.698 40.528 106.979 40.9717 106.932 41.6497Z" fill="#82BC48"/> -->
<!-- <path d="M172.585 44.0044C172.78 43.8884 172.917 43.8082 173.052 43.7269C174.126 43.0871 174.39 42.0766 174.229 40.9286C174.081 39.8619 173.43 39.0607 172.393 38.9674C170.825 38.8275 169.234 38.9303 167.66 38.9303V46.8278H169.366V44.3404C170.326 44.0821 170.953 44.3201 171.357 45.1679C171.581 45.6415 171.911 46.066 172.22 46.4905C172.331 46.6436 172.512 46.829 172.673 46.8421C173.246 46.8852 173.823 46.8589 174.508 46.8589C173.821 45.8388 173.221 44.9479 172.585 44.0032V44.0044ZM172.475 41.6162C172.445 42.2405 172.063 42.6459 171.365 42.6913C170.73 42.7344 170.09 42.7009 169.378 42.7009V40.4144C170.116 40.4144 170.822 40.351 171.51 40.4323C172.231 40.5172 172.506 40.9298 172.474 41.615L172.475 41.6162Z" fill="#82BC48"/> -->
<!-- <path d="M100.425 45.2792V46.8135H94.4375V38.8264H100.377V40.3283H96.1787V41.9918H99.84V43.5392H96.1858V45.2804H100.424L100.425 45.2792Z" fill="#82BC48"/> -->
<!-- <path d="M112.115 40.3224V42.0049H115.785V43.5607H112.121V45.272H116.346V46.8075H110.352V38.8323H116.301V40.3224H112.115Z" fill="#82BC48"/> -->
<!-- <path d="M189.431 39.2521C189.193 38.6601 188.82 38.7067 188.362 38.6972C187.889 38.6876 187.531 38.7044 187.302 39.2736C186.37 41.5947 185.376 43.892 184.409 46.2C184.325 46.3973 184.262 46.6042 184.184 46.8266C185.844 46.9318 185.853 46.9354 186.463 45.4908C186.596 45.1727 186.755 45.034 187.113 45.0472C187.911 45.0747 188.713 45.0807 189.51 45.0448C189.92 45.028 190.114 45.1763 190.266 45.553C190.812 46.8948 190.824 46.8888 192.232 46.8601C192.322 46.8577 192.411 46.8457 192.601 46.829C191.513 44.2471 190.439 41.7634 189.432 39.2521H189.431ZM187.32 43.4172C187.642 42.6064 187.957 41.8148 188.341 40.8521C188.724 41.7849 189.04 42.5574 189.392 43.4172H187.32Z" fill="#82BC48"/> -->
<!-- <path d="M163.06 39.0679C162.785 38.4114 162.228 38.8096 161.805 38.7115C161.436 38.6242 161.234 38.8072 161.087 39.1612C160.088 41.578 159.067 43.9888 158.056 46.4021C158.002 46.5336 157.982 46.6795 157.941 46.8397H159.651C159.829 46.4021 160.03 45.9883 160.165 45.5518C160.291 45.1512 160.52 45.0328 160.923 45.0495C161.697 45.0794 162.476 45.083 163.251 45.0472C163.664 45.0292 163.839 45.1871 163.987 45.5626C164.52 46.9067 164.537 46.8983 165.97 46.8601C166.06 46.8577 166.148 46.8433 166.325 46.8254C165.212 44.1826 164.133 41.627 163.06 39.0691V39.0679ZM161.033 43.422C161.385 42.5646 161.71 41.7693 162.08 40.8664C162.452 41.7777 162.768 42.561 163.12 43.422H161.033Z" fill="#82BC48"/> -->
<!-- <path d="M68.2737 38.8825C66.947 38.7474 65.5955 38.8526 64.2168 38.8526V46.8266H65.894V44.4648C66.6568 44.4301 67.3178 44.4337 67.9716 44.3631C69.4522 44.2077 70.4496 43.1266 70.5029 41.6701C70.5538 40.2697 69.6572 39.02 68.2737 38.8813V38.8825ZM67.5559 42.836C67.0359 42.8743 66.5112 42.8432 65.9189 42.8432V40.418C66.5254 40.418 67.1129 40.3546 67.6838 40.4324C68.3909 40.5304 68.7569 41.0386 68.7143 41.676C68.6717 42.2991 68.2168 42.7846 67.5559 42.8348V42.836Z" fill="#82BC48"/> -->
<!-- <path d="M201.176 38.8586C200.392 40.833 199.632 42.7499 198.871 44.6681C198.702 45.095 198.536 45.5231 198.367 45.9512C197.974 46.945 197.741 47.0813 196.685 46.8947C196.555 46.872 196.378 46.7668 196.332 46.6556C195.292 44.0821 194.266 41.5014 193.189 38.7988C193.826 38.7988 194.366 38.7558 194.89 38.8239C195.057 38.8454 195.248 39.1348 195.326 39.3417C195.951 40.9944 196.551 42.6554 197.216 44.4696C197.776 42.9592 198.285 41.5959 198.787 40.2303C199.177 39.1699 199.973 38.7135 201.175 38.861L201.176 38.8586Z" fill="#82BC48"/> -->
<!-- <path d="M141.793 42.0169C142.351 41.0901 142.877 40.2817 143.334 39.4362C143.594 38.9567 143.893 38.7103 144.455 38.7821C144.827 38.8299 145.209 38.7917 145.726 38.7917C144.89 40.1143 144.171 41.3352 143.366 42.4976C142.845 43.2498 142.587 44.0187 142.667 44.9348C142.722 45.547 142.678 46.1677 142.678 46.823H140.91C140.91 46.0971 140.872 45.3677 140.92 44.643C140.966 43.9625 140.769 43.4077 140.398 42.8468C139.542 41.5541 138.738 40.2243 137.842 38.7953C138.53 38.7953 139.094 38.763 139.649 38.8144C139.821 38.8299 140.019 39.0464 140.125 39.2198C140.679 40.1155 141.207 41.0279 141.793 42.0169Z" fill="#82BC48"/> -->
</svg>
